<svg xmlns="http://www.w3.org/2000/svg" width="24" height="24" viewBox="0 0 6.35 6.35"><path style="line-height:normal;font-variant-ligatures:normal;font-variant-position:normal;font-variant-caps:normal;font-variant-numeric:normal;font-variant-alternates:normal;font-feature-settings:normal;text-indent:0;text-align:start;text-decoration-line:none;text-decoration-style:solid;text-decoration-color:#000;text-transform:none;text-orientation:mixed;white-space:normal;shape-padding:0;isolation:auto;mix-blend-mode:normal;solid-color:#000;solid-opacity:1" d="M3.172.78a.198.198 0 0 0-.01.002.198.198 0 0 0-.01 0 .198.198 0 0 0-.02.004.198.198 0 0 0-.009.002.198.198 0 0 0-.016.006.198.198 0 0 0-.011.004.198.198 0 0 0-.01.004.198.198 0 0 0-.008.006.198.198 0 0 0-.01.004.198.198 0 0 0-.007.006.198.198 0 0 0-.008.006.198.198 0 0 0-.008.006.198.198 0 0 0-.008.008.198.198 0 0 0-.006.006.198.198 0 0 0-.008.008L3.02.856a.198.198 0 0 0 0 .002.198.198 0 0 0-.002.002l-1.53 1.365a.198.198 0 1 0 .264.295l1.225-1.096v3.944a.198.198 0 1 0 .396 0V1.424L4.598 2.52a.198.198 0 1 0 .265-.295L3.338.862 3.336.86a.198.198 0 0 0-.008-.006.198.198 0 0 0-.002-.002.198.198 0 0 0-.004-.006.198.198 0 0 0-.008-.008.198.198 0 0 0-.005-.006A.198.198 0 0 0 3.3.824a.198.198 0 0 0-.008-.006.198.198 0 0 0-.008-.006.198.198 0 0 0-.008-.004.198.198 0 0 0-.01-.006.198.198 0 0 0-.007-.004.198.198 0 0 0-.01-.004.198.198 0 0 0-.01-.004.198.198 0 0 0-.01-.002.198.198 0 0 0-.01-.004.198.198 0 0 0-.005 0A.198.198 0 0 0 3.2.782.198.198 0 0 0 3.19.78a.198.198 0 0 0-.01 0 .198.198 0 0 0-.01-.002z" color="#000" font-weight="400" font-family="sans-serif" overflow="visible"/></svg>