<svg xmlns="http://www.w3.org/2000/svg" width="24" height="24" viewBox="0 0 6.35 6.35"><path style="line-height:normal;font-variant-ligatures:normal;font-variant-position:normal;font-variant-caps:normal;font-variant-numeric:normal;font-variant-alternates:normal;font-feature-settings:normal;text-indent:0;text-align:start;text-decoration-line:none;text-decoration-style:solid;text-decoration-color:#000;text-transform:none;text-orientation:mixed;white-space:normal;shape-padding:0;isolation:auto;mix-blend-mode:normal;solid-color:#000;solid-opacity:1" d="M3.172 5.573a.198.198 0 0 1-.01-.002.198.198 0 0 1-.01 0 .198.198 0 0 1-.02-.004.198.198 0 0 1-.009-.002.198.198 0 0 1-.016-.006.198.198 0 0 1-.011-.004.198.198 0 0 1-.01-.004.198.198 0 0 1-.008-.006.198.198 0 0 1-.01-.004.198.198 0 0 1-.007-.006.198.198 0 0 1-.008-.006.198.198 0 0 1-.008-.006.198.198 0 0 1-.008-.008.198.198 0 0 1-.006-.006.198.198 0 0 1-.008-.008l-.003-.004a.198.198 0 0 1 0-.002.198.198 0 0 1-.002-.002l-1.53-1.365a.198.198 0 1 1 .264-.295L2.977 4.93V.985a.198.198 0 1 1 .396 0V4.93l1.225-1.096a.198.198 0 1 1 .265.295L3.338 5.491l-.002.002a.198.198 0 0 1-.008.006.198.198 0 0 1-.002.002.198.198 0 0 1-.004.006.198.198 0 0 1-.008.008.198.198 0 0 1-.005.006.198.198 0 0 1-.008.008.198.198 0 0 1-.008.006.198.198 0 0 1-.008.006.198.198 0 0 1-.008.004.198.198 0 0 1-.01.006.198.198 0 0 1-.007.004.198.198 0 0 1-.01.004.198.198 0 0 1-.01.004.198.198 0 0 1-.01.002.198.198 0 0 1-.01.004.198.198 0 0 1-.005 0 .198.198 0 0 1-.014.002.198.198 0 0 1-.01.002.198.198 0 0 1-.01 0 .198.198 0 0 1-.01.002z" color="#000" font-weight="400" font-family="sans-serif" overflow="visible"/></svg>