<svg xmlns="http://www.w3.org/2000/svg" width="24" height="24" viewBox="0 0 6.35 6.35"><path style="line-height:normal;font-variant-ligatures:normal;font-variant-position:normal;font-variant-caps:normal;font-variant-numeric:normal;font-variant-alternates:normal;font-feature-settings:normal;text-indent:0;text-align:start;text-decoration-line:none;text-decoration-style:solid;text-decoration-color:#000;text-transform:none;text-orientation:mixed;white-space:normal;shape-padding:0;isolation:auto;mix-blend-mode:normal;solid-color:#000;solid-opacity:1" d="M1.957.322C.961.322.16 1.234.16 2.363c0 1.13.803 2.04 1.797 2.04h1.44c.016 0 .025.009.025.025v1.4a.198.198 0 0 0 .347.13l1.725-1.954A.198.198 0 0 0 5.498 4l.227-.27a.198.198 0 0 0 .003-.005c.3-.381.465-.862.461-1.362 0-1.13-.802-2.04-1.797-2.04H1.957z" color="#000" font-weight="400" font-family="sans-serif" overflow="visible"/></svg>