<svg xmlns="http://www.w3.org/2000/svg" width="24" height="24" viewBox="0 0 6.35 6.35"><path style="line-height:normal;font-variant-ligatures:normal;font-variant-position:normal;font-variant-caps:normal;font-variant-numeric:normal;font-variant-alternates:normal;font-feature-settings:normal;text-indent:0;text-align:start;text-decoration-line:none;text-decoration-style:solid;text-decoration-color:#000;text-transform:none;text-orientation:mixed;white-space:normal;shape-padding:0;isolation:auto;mix-blend-mode:normal;solid-color:#000;solid-opacity:1" d="M1.957.322C.961.322.16 1.234.16 2.363c0 1.13.803 2.04 1.797 2.04h1.44c.015 0 .025.009.025.025v1.4a.198.198 0 0 0 .348.131l1.724-1.955A.198.198 0 0 0 5.498 4l.227-.27a.198.198 0 0 0 .004-.005c.299-.382.464-.862.46-1.362 0-1.13-.802-2.04-1.796-2.04zm0 .399h2.436c.75 0 1.4.697 1.4 1.642a.198.198 0 0 0 0 .002c.003.41-.135.806-.377 1.115l-.22.262-1.378 1.56v-.876a.424.424 0 0 0-.422-.42H1.957c-.75 0-1.398-.699-1.398-1.643 0-.944.647-1.642 1.398-1.642z" color="#000" font-weight="400" font-family="sans-serif" overflow="visible"/></svg>