<svg xmlns="http://www.w3.org/2000/svg" width="24" height="24" viewBox="0 0 6.35 6.35"><path style="line-height:normal;font-variant-ligatures:normal;font-variant-position:normal;font-variant-caps:normal;font-variant-numeric:normal;font-variant-alternates:normal;font-feature-settings:normal;text-indent:0;text-align:start;text-decoration-line:none;text-decoration-style:solid;text-decoration-color:#000;text-transform:none;text-orientation:mixed;white-space:normal;shape-padding:0;isolation:auto;mix-blend-mode:normal;solid-color:#000;solid-opacity:1" d="M1.012 2.355c-.46 0-.86.358-.86.82 0 .462.4.82.86.82.46 0 .861-.357.861-.82 0-.462-.401-.82-.861-.82zm0 .397c.258 0 .463.192.463.424 0 .23-.205.422-.463.422-.257 0-.463-.192-.463-.422 0-.232.206-.424.463-.424zm4.324-.397c-.46 0-.857.358-.857.82 0 .462.397.82.857.82.46 0 .861-.357.861-.82 0-.462-.401-.82-.861-.82zm0 .397c.258 0 .465.192.465.424 0 .23-.207.422-.465.422-.257 0-.461-.192-.461-.422 0-.232.204-.424.46-.424zm-2.162-.397c-.46 0-.86.358-.86.82 0 .462.4.82.86.82.46 0 .861-.357.861-.82 0-.462-.401-.82-.861-.82zm0 .397c.258 0 .465.192.465.424 0 .23-.207.422-.465.422-.257 0-.461-.192-.461-.422 0-.232.204-.424.46-.424z" color="#000" font-weight="400" font-family="sans-serif" overflow="visible"/></svg>