<svg xmlns="http://www.w3.org/2000/svg" width="24" height="24" viewBox="0 0 6.35 6.35"><path style="line-height:normal;font-variant-ligatures:normal;font-variant-position:normal;font-variant-caps:normal;font-variant-numeric:normal;font-variant-alternates:normal;font-feature-settings:normal;text-indent:0;text-align:start;text-decoration-line:none;text-decoration-style:solid;text-decoration-color:#000;text-transform:none;text-orientation:mixed;white-space:normal;shape-padding:0;isolation:auto;mix-blend-mode:normal;solid-color:#000;solid-opacity:1" d="M1.012 2.355c-.46 0-.86.359-.86.821 0 .462.4.818.86.818.46 0 .861-.356.861-.818 0-.463-.401-.82-.861-.82zm4.324 0c-.459 0-.858.359-.858.821 0 .462.399.818.858.818.46 0 .861-.356.861-.818 0-.463-.401-.82-.86-.82zm-2.162 0c-.46 0-.86.359-.86.821 0 .462.4.818.86.818.46 0 .861-.356.861-.818 0-.463-.401-.82-.861-.82z" color="#000" font-weight="400" font-family="sans-serif" overflow="visible"/></svg>