<svg xmlns="http://www.w3.org/2000/svg" width="24" height="24" viewBox="0 0 6.35 6.35"><path style="line-height:normal;font-variant-ligatures:normal;font-variant-position:normal;font-variant-caps:normal;font-variant-numeric:normal;font-variant-alternates:normal;font-feature-settings:normal;text-indent:0;text-align:start;text-decoration-line:none;text-decoration-style:solid;text-decoration-color:#000;text-transform:none;text-orientation:mixed;white-space:normal;shape-padding:0;isolation:auto;mix-blend-mode:normal;solid-color:#000;solid-opacity:1" d="M2.05.42a1.801 1.801 0 0 0-1.041.139C.327.879.095 1.597.148 2.244c.053.637.334 1.315.8 1.97.361.51.791.94 1.253 1.266l.002.002c.129.089.262.173.399.247.138.075.282.143.43.199a.405.405 0 0 0 .286 0c.15-.057.292-.124.43-.2.616-.334 1.193-.86 1.658-1.513v-.002c.464-.656.743-1.334.795-1.97V2.24a2.1 2.1 0 0 0 .008-.178c.006-.589-.25-1.214-.867-1.503V.56C4.668.243 3.916.432 3.299.77c-.046.024-.083.05-.123.076C3.136.82 3.1.794 3.053.77L3.05.768 3.008.746h-.022A2.969 2.969 0 0 0 2.051.42zm-.874.498c.513-.241 1.131-.101 1.685.201l.006.002.012.008c.057.03.117.07.187.115l.108.07.11-.07c.072-.047.139-.09.202-.125h.002C4.041.817 4.661.676 5.174.918c.459.216.643.663.638 1.14v.003c0 .049-.002.099-.005.148-.045.544-.292 1.164-.725 1.775-.433.61-.97 1.094-1.523 1.395a3.016 3.016 0 0 1-.387.176 3.078 3.078 0 0 1-.381-.176 4.083 4.083 0 0 1-.361-.223l-.002-.002a4.931 4.931 0 0 1-1.157-1.17C.838 3.373.588 2.754.543 2.211c-.044-.536.125-1.055.633-1.293z" color="#000" font-weight="400" font-family="sans-serif" overflow="visible"/></svg>