<svg xmlns="http://www.w3.org/2000/svg" width="24" height="24" viewBox="0 0 6.35 6.35"><path style="line-height:normal;font-variant-ligatures:normal;font-variant-position:normal;font-variant-caps:normal;font-variant-numeric:normal;font-variant-alternates:normal;font-feature-settings:normal;text-indent:0;text-align:start;text-decoration-line:none;text-decoration-style:solid;text-decoration-color:#000;text-transform:none;text-orientation:mixed;white-space:normal;shape-padding:0;isolation:auto;mix-blend-mode:normal;solid-color:#000;solid-opacity:1" d="M1.787.398a1.732 1.732 0 0 0-.78.16c-.68.32-.912 1.04-.859 1.686.053.637.334 1.315.8 1.97.36.51.791.94 1.253 1.266l.002.002c.128.089.262.172.398.246.139.076.284.144.43.2a.405.405 0 0 0 .287 0 3.51 3.51 0 0 0 .43-.2c.616-.334 1.193-.86 1.658-1.513v-.002c.464-.656.743-1.334.795-1.97V2.24a2.1 2.1 0 0 0 .008-.178c.006-.59-.25-1.214-.867-1.503V.56C4.668.243 3.916.432 3.299.769c-.045.025-.082.051-.123.077C3.136.82 3.1.794 3.053.769L3.05.767l-.043-.02h-.022A2.967 2.967 0 0 0 2.051.42a2.15 2.15 0 0 0-.264-.022z" color="#000" font-weight="400" font-family="sans-serif" overflow="visible"/></svg>