<svg width="24" height="24" viewBox="0 0 6.35 6.35" xmlns="http://www.w3.org/2000/svg"><path d="M5.6712 2.12c.00337-.45673-.16514-.87003-.60163-1.0751-.48164-.22629-1.0697-.0957-1.5936.18972-.10119.0551-.2018.11685-.30126.18458-.099441-.0677-.20005-.12938-.30122-.1845-.52391-.28546-1.1119-.41601-1.5936-.18971-.48164.22628-.637.70609-.59517 1.218.041827.51195.2765 1.1003.68681 1.6786.31977.45073.69935.82928 1.0993 1.1095.11323.0793.22808.15082.34367.21379.11744.064.23813.12012.36011.16624.12205-.0462.24282-.10228.36033-.16629.52391-.28545 1.0327-.74502 1.443-1.3233.4103-.57832.64498-1.1666.68681-1.6786.00393-.0481.00611-.0957.00646-.14295z" color="#000" solid-color="#000000" stroke="#000" stroke-linecap="square" stroke-linejoin="round" stroke-width=".397" style="font-feature-settings:normal;font-variant-alternates:normal;font-variant-caps:normal;font-variant-ligatures:normal;font-variant-numeric:normal;font-variant-position:normal;isolation:auto;mix-blend-mode:normal;shape-padding:0;text-decoration-color:#000;text-decoration-line:none;text-decoration-style:solid;text-indent:0;text-orientation:mixed;text-transform:none" white-space="normal"/></svg>