<svg xmlns="http://www.w3.org/2000/svg" width="24" height="24" viewBox="0 0 6.35 6.35"><g color="#000" font-weight="400" font-family="sans-serif"><path style="line-height:normal;font-variant-ligatures:normal;font-variant-position:normal;font-variant-caps:normal;font-variant-numeric:normal;font-variant-alternates:normal;font-feature-settings:normal;text-indent:0;text-align:start;text-decoration-line:none;text-decoration-style:solid;text-decoration-color:#000;text-transform:none;text-orientation:mixed;white-space:normal;shape-padding:0;isolation:auto;mix-blend-mode:normal;solid-color:#000;solid-opacity:1" d="M2.823 2.224a1.227 1.227 0 0 0-.34.593c-.047.208-.016.437.14.593l.317.317c.06.06.133.096.21.122l.05-.05a.838.838 0 0 0 .199-.312c-.089.01-.146-.008-.18-.04l-.315-.317c-.04-.039-.061-.11-.035-.228a.86.86 0 0 1 .235-.397L4.22 1.389a.842.842 0 0 1 .398-.235c.118-.027.189-.004.227.034l.317.317c.038.038.06.109.034.227a.862.862 0 0 1-.235.398L3.923 3.17a.784.784 0 0 1 .01.379 1.107 1.107 0 0 1-.056.174c.087-.054.171-.118.249-.195L5.242 2.41c.177-.178.295-.385.341-.593.046-.209.016-.437-.141-.594L5.126.908C4.969.751 4.74.721 4.532.767a1.23 1.23 0 0 0-.593.341z" overflow="visible"/><path style="line-height:normal;font-variant-ligatures:normal;font-variant-position:normal;font-variant-caps:normal;font-variant-numeric:normal;font-variant-alternates:normal;font-feature-settings:normal;text-indent:0;text-align:start;text-decoration-line:none;text-decoration-style:solid;text-decoration-color:#000;text-transform:none;text-orientation:mixed;white-space:normal;shape-padding:0;isolation:auto;mix-blend-mode:normal;solid-color:#000;solid-opacity:1" d="M1.108 3.94a1.229 1.229 0 0 0-.341.592c-.046.209-.016.437.141.594l.316.316c.157.157.385.187.594.141a1.23 1.23 0 0 0 .593-.341l1.116-1.116c.177-.177.294-.384.34-.593.047-.208.016-.437-.14-.593l-.317-.317a.524.524 0 0 0-.21-.122l-.05.05a.838.838 0 0 0-.199.312c.089-.01.146.008.18.04l.315.317c.04.039.061.11.035.228a.86.86 0 0 1-.235.397L2.13 4.961a.862.862 0 0 1-.398.235c-.118.027-.189.004-.227-.034l-.317-.317c-.038-.038-.06-.109-.034-.227a.862.862 0 0 1 .235-.398l1.036-1.037a.807.807 0 0 1-.007-.38c.013-.06.032-.118.055-.175a1.375 1.375 0 0 0-.249.195z" overflow="visible"/></g></svg>