<svg width="24" height="24" viewBox="0 0 6.35 6.35" xmlns="http://www.w3.org/2000/svg"><path d="M3.175.18C1.9076.18.8744 1.2076.8744 2.4708S1.9077 4.7621 3.175 4.7621c.3482 0 .67728-.0799.97358-.21859l.88573 1.525a.19865.19865 0 1 0 .34365-.19895l-.88522-1.5239c.59329-.4148.98289-1.0998.98289-1.8748 0-1.2633-1.0333-2.2908-2.3006-2.2908zm0 .39636c1.0538 0 1.9022.84663 1.9022 1.8945 0 1.0478-.84838 1.8945-1.9022 1.8945s-1.9022-.84662-1.9022-1.8945c0-1.0478.84838-1.8945 1.9022-1.8945z" color="#000" solid-color="#000000" style="font-feature-settings:normal;font-variant-alternates:normal;font-variant-caps:normal;font-variant-ligatures:normal;font-variant-numeric:normal;font-variant-position:normal;isolation:auto;mix-blend-mode:normal;shape-padding:0;text-decoration-color:#000;text-decoration-line:none;text-decoration-style:solid;text-indent:0;text-orientation:mixed;text-transform:none" paint-order="stroke markers fill" white-space="normal"/></svg>