<svg xmlns="http://www.w3.org/2000/svg" width="24" height="24" viewBox="0 0 6.35 6.35"><path d="M4.92 3.175A1.745 1.745 0 0 1 3.175 4.92 1.745 1.745 0 0 1 1.43 3.175 1.745 1.745 0 0 1 3.175 1.43 1.745 1.745 0 0 1 4.92 3.175zM2.676.383l-.124.46a2.416 2.416 0 0 0-.587.243L1.553.85l-.705.706.238.412a2.416 2.416 0 0 0-.245.587l-.458.123v.998l.46.124a2.416 2.416 0 0 0 .243.586l-.238.412.706.706.413-.239a2.416 2.416 0 0 0 .585.244l.124.46h.998l.123-.461a2.416 2.416 0 0 0 .587-.242l.413.238.705-.706-.238-.413a2.416 2.416 0 0 0 .244-.586l.46-.123v-.999l-.461-.122a2.416 2.416 0 0 0-.242-.587l.238-.413-.706-.706-.413.238a2.416 2.416 0 0 0-.588-.245L3.674.383z" stroke="#000" stroke-width=".397" stroke-linecap="round" stroke-linejoin="round" paint-order="stroke markers fill"/></svg>