<svg xmlns="http://www.w3.org/2000/svg" width="24" height="24" viewBox="0 0 6.35 6.35"><path style="line-height:normal;font-variant-ligatures:normal;font-variant-position:normal;font-variant-caps:normal;font-variant-numeric:normal;font-variant-alternates:normal;font-feature-settings:normal;text-indent:0;text-align:start;text-decoration-line:none;text-decoration-style:solid;text-decoration-color:#000;text-transform:none;text-orientation:mixed;white-space:normal;shape-padding:0;isolation:auto;mix-blend-mode:normal;solid-color:#000;solid-opacity:1" d="M2.676.183a.198.198 0 0 0-.191.15l-.098.364c-.14.045-.276.1-.407.168L1.652.677a.198.198 0 0 0-.24.032l-.705.705a.198.198 0 0 0-.031.24l.19.328a2.526 2.526 0 0 0-.17.406l-.364.098a.198.198 0 0 0-.149.192v.998a.198.198 0 0 0 .15.19l.366.099c.045.139.1.275.166.404l-.19.328a.198.198 0 0 0 .032.24l.707.706a.198.198 0 0 0 .24.031l.328-.19c.13.068.264.124.403.168l.1.368a.198.198 0 0 0 .19.146h.999a.198.198 0 0 0 .191-.148l.098-.366c.14-.044.274-.1.404-.168l.33.192a.198.198 0 0 0 .24-.033l.706-.705a.198.198 0 0 0 .031-.24l-.19-.329c.068-.13.122-.265.166-.404l.37-.098a.198.198 0 0 0 .146-.191v-1a.198.198 0 0 0-.146-.191l-.37-.098a2.62 2.62 0 0 0-.166-.403l.192-.332a.198.198 0 0 0-.033-.238L4.938.707a.198.198 0 0 0-.24-.031l-.329.19a2.611 2.611 0 0 0-.406-.169L3.865.332a.198.198 0 0 0-.191-.149h-.998zm.5 1.446c.856 0 1.545.69 1.545 1.547a1.54 1.54 0 0 1-1.545 1.545 1.542 1.542 0 0 1-1.547-1.545c0-.856.69-1.547 1.547-1.547z" color="#000" font-weight="400" font-family="sans-serif" overflow="visible" paint-order="stroke markers fill"/></svg>