<svg xmlns="http://www.w3.org/2000/svg" width="24" height="24" viewBox="0 0 6.35 6.35"><g transform="translate(0 -290.65)" fill="none" stroke="#000" stroke-width=".397" stroke-linecap="round" stroke-linejoin="round"><path d="M2.676 291.033l-.124.46a2.416 2.416 0 0 0-.587.243l-.412-.237-.705.706.238.412a2.416 2.416 0 0 0-.245.587l-.458.123v.998l.46.124a2.416 2.416 0 0 0 .243.586l-.238.412.706.706.413-.239a2.416 2.416 0 0 0 .585.244l.124.459h.998l.123-.46a2.416 2.416 0 0 0 .587-.242l.413.238.705-.706-.238-.413a2.416 2.416 0 0 0 .244-.586l.46-.123v-.999l-.461-.122a2.416 2.416 0 0 0-.242-.587l.238-.413-.706-.706-.413.238a2.416 2.416 0 0 0-.588-.245l-.122-.458z"/><circle cx="3.175" cy="293.825" r="1.745" paint-order="stroke markers fill"/></g></svg>