<svg xmlns="http://www.w3.org/2000/svg" width="24" height="24" viewBox="0 0 6.35 6.35"><path style="line-height:normal;font-variant-ligatures:normal;font-variant-position:normal;font-variant-caps:normal;font-variant-numeric:normal;font-variant-alternates:normal;font-feature-settings:normal;text-indent:0;text-align:start;text-decoration-line:none;text-decoration-style:solid;text-decoration-color:#000;text-transform:none;text-orientation:mixed;white-space:normal;shape-padding:0;isolation:auto;mix-blend-mode:normal;solid-color:#000;solid-opacity:1" d="M2.676.184a.198.198 0 0 0-.192.148l-.097.365c-.14.045-.276.1-.407.168L1.652.678a.198.198 0 0 0-.24.031l-.705.705a.198.198 0 0 0-.031.24l.19.328a2.414 2.414 0 0 0-.17.407l-.364.097a.198.198 0 0 0-.148.192v.998a.198.198 0 0 0 .148.191l.367.098c.045.139.1.274.166.404l-.19.328a.198.198 0 0 0 .032.24l.707.706a.198.198 0 0 0 .24.03l.328-.189c.13.068.264.124.403.168l.1.368a.198.198 0 0 0 .19.146h.999a.198.198 0 0 0 .191-.148l.098-.366c.14-.044.274-.1.404-.168l.33.192a.198.198 0 0 0 .24-.033l.706-.705a.198.198 0 0 0 .03-.24l-.189-.329c.068-.13.122-.265.166-.404l.37-.098a.198.198 0 0 0 .146-.191v-1a.198.198 0 0 0-.146-.192l-.37-.097a2.618 2.618 0 0 0-.166-.403l.192-.332a.198.198 0 0 0-.033-.238L4.938.707a.198.198 0 0 0-.24-.031l-.329.19a2.612 2.612 0 0 0-.406-.169L3.865.332a.198.198 0 0 0-.191-.148zm.152.398h.693l.083.31a.198.198 0 0 0 .14.141c.19.051.372.126.541.225a.198.198 0 0 0 .197 0l.282-.162.492.49-.162.281a.198.198 0 0 0 0 .2c.097.168.17.35.22.538a.198.198 0 0 0 .143.141l.313.082v.695l-.313.082a.198.198 0 0 0-.14.141c-.051.188-.127.37-.225.54a.198.198 0 0 0 0 .196l.162.282-.49.492-.282-.162a.198.198 0 0 0-.197 0c-.169.097-.35.17-.539.22a.198.198 0 0 0-.14.141l-.085.315h-.693l-.084-.313a.198.198 0 0 0-.14-.14 2.22 2.22 0 0 1-.538-.225.198.198 0 0 0-.199 0l-.281.164-.49-.492.162-.28a.198.198 0 0 0 0-.199 2.211 2.211 0 0 1-.223-.537.198.198 0 0 0-.14-.14l-.313-.085V2.83l.31-.084a.198.198 0 0 0 .141-.14c.051-.19.126-.37.225-.54a.198.198 0 0 0 0-.199l-.162-.28.49-.49.28.16a.198.198 0 0 0 .198 0c.17-.097.35-.172.54-.222a.198.198 0 0 0 .14-.14z" color="#000" font-weight="400" font-family="sans-serif" overflow="visible"/><path style="line-height:normal;font-variant-ligatures:normal;font-variant-position:normal;font-variant-caps:normal;font-variant-numeric:normal;font-variant-alternates:normal;font-feature-settings:normal;text-indent:0;text-align:start;text-decoration-line:none;text-decoration-style:solid;text-decoration-color:#000;text-transform:none;text-orientation:mixed;white-space:normal;shape-padding:0;isolation:auto;mix-blend-mode:normal;solid-color:#000;solid-opacity:1" d="M3.176 1.232a1.946 1.946 0 0 0-1.944 1.944c0 1.07.873 1.943 1.944 1.943a1.946 1.946 0 0 0 1.943-1.943 1.946 1.946 0 0 0-1.943-1.944zm0 .397c.856 0 1.545.69 1.545 1.547A1.54 1.54 0 0 1 3.176 4.72a1.542 1.542 0 0 1-1.547-1.545c0-.857.69-1.547 1.547-1.547z" color="#000" font-weight="400" font-family="sans-serif" overflow="visible" paint-order="stroke markers fill"/></svg>