<svg xmlns="http://www.w3.org/2000/svg" width="24" height="24" viewBox="0 0 6.35 6.35"><path style="line-height:normal;font-variant-ligatures:normal;font-variant-position:normal;font-variant-caps:normal;font-variant-numeric:normal;font-variant-alternates:normal;font-feature-settings:normal;text-indent:0;text-align:start;text-decoration-line:none;text-decoration-style:solid;text-decoration-color:#000;text-transform:none;text-orientation:mixed;white-space:normal;shape-padding:0;isolation:auto;mix-blend-mode:normal;solid-color:#000;solid-opacity:1" d="M4.02.426a.199.199 0 0 0-.147.08l-.588.752L3 .87a.199.199 0 1 0-.32.236l.42.565.004.006a.199.199 0 0 0 .042.056.199.199 0 0 0 .002 0 .199.199 0 0 0 .047.034.199.199 0 0 0 .002 0 .199.199 0 0 0 .02.007.199.199 0 0 0 .015.006.199.199 0 0 0 .002 0 .199.199 0 0 0 .018.004.199.199 0 0 0 .002 0 .199.199 0 0 0 .017.002.199.199 0 0 0 .002 0 .199.199 0 0 0 .079-.012.199.199 0 0 0 .105-.088.199.199 0 0 0 .002-.001l.727-.938A.199.199 0 0 0 4.02.426z" color="#000" font-weight="400" font-family="sans-serif" overflow="visible"/><path style="line-height:normal;font-variant-ligatures:normal;font-variant-position:normal;font-variant-caps:normal;font-variant-numeric:normal;font-variant-alternates:normal;font-feature-settings:normal;text-indent:0;text-align:start;text-decoration-line:none;text-decoration-style:solid;text-decoration-color:#000;text-transform:none;text-orientation:mixed;white-space:normal;shape-padding:0;isolation:auto;mix-blend-mode:normal;solid-color:#000;solid-opacity:1" d="M1.56 1.4c-.408 0-.743.298-.966.708-.223.41-.352.954-.352 1.554 0 .6.129 1.145.352 1.555.223.41.558.705.967.705h3.228c.408 0 .744-.295.967-.705.223-.41.352-.954.352-1.555 0-.6-.13-1.144-.352-1.554-.223-.41-.559-.707-.967-.707H1.56zm2.23 1.418a.132.132 0 0 1 .04.004.132.132 0 0 1 .001 0 .132.132 0 0 1 .024.008.132.132 0 0 1 .002 0 .132.132 0 0 1 .01.006.132.132 0 0 1 .005.002.132.132 0 0 1 .018.013.132.132 0 0 1 .007.009.132.132 0 0 1 0 .001.132.132 0 0 1 .01.009.132.132 0 0 1 .014.023.132.132 0 0 1 .006.012.132.132 0 0 1 0 .002.132.132 0 0 1 .006.023.132.132 0 0 1 0 .002.132.132 0 0 1 .002.01v.002l.12.744.378-.438a.132.132 0 1 1 .2.172l-.55.641a.132.132 0 0 1-.002.004.132.132 0 0 1-.016.017.132.132 0 0 1-.02.02.132.132 0 0 1-.032.014.132.132 0 0 1-.008.002.132.132 0 0 1-.008.002.132.132 0 0 1-.027.004.132.132 0 0 1-.002 0 .132.132 0 0 1-.01-.002.132.132 0 0 1-.002 0 .132.132 0 0 1-.023-.004.132.132 0 0 1-.003 0 .132.132 0 0 1-.001 0 .132.132 0 0 1-.004-.002.132.132 0 0 1-.008-.004.132.132 0 0 1-.01-.004.132.132 0 0 1-.002-.002.132.132 0 0 1-.01-.006.132.132 0 0 1-.001-.002.132.132 0 0 1-.008-.006.132.132 0 0 1-.002-.002.132.132 0 0 1-.008-.006.132.132 0 0 1-.002-.004.132.132 0 0 1-.008-.008.132.132 0 0 1 0-.002.132.132 0 0 1-.007-.008.132.132 0 0 1 0-.002.132.132 0 0 1-.007-.01.132.132 0 0 1 0-.002.132.132 0 0 1-.005-.014.132.132 0 0 1-.004-.008.132.132 0 0 1 0-.004A.132.132 0 0 1 3.838 4a.132.132 0 0 1-.002-.014l-.121-.738-1.053 1.197a.132.132 0 0 1-.012.014l-.002.002a.132.132 0 0 1-.005.006.132.132 0 0 1 0 .002.132.132 0 0 1-.01.008.132.132 0 0 1-.022.014.132.132 0 0 1-.002.002.132.132 0 0 1-.01.003.132.132 0 0 1-.023.009.132.132 0 0 1-.002 0 .132.132 0 0 1-.013.002.132.132 0 0 1-.028 0 .132.132 0 0 1-.037-.01.132.132 0 0 1-.023-.014.132.132 0 0 1-.03-.027.132.132 0 0 1-.013-.022.132.132 0 0 1 0-.002.132.132 0 0 1-.012-.035.132.132 0 0 1 0-.002l-.002-.012-.121-.746-.375.438a.132.132 0 1 1-.201-.172l.549-.64a.132.132 0 0 1 .002-.005.132.132 0 0 1 .01-.01.132.132 0 0 1 .005-.008.132.132 0 0 1 .002-.002.132.132 0 0 1 .008-.006.132.132 0 0 1 .021-.016.132.132 0 0 1 .002-.002.132.132 0 0 1 .01-.003.132.132 0 0 1 .016-.007.132.132 0 0 1 .01-.002.132.132 0 0 1 .013-.002.132.132 0 0 1 .002 0 .132.132 0 0 1 .024 0 .132.132 0 0 1 .003 0 .132.132 0 0 1 .01.002.132.132 0 0 1 .002 0 .132.132 0 0 1 .012.005.132.132 0 0 1 .002 0 .132.132 0 0 1 .01.004.132.132 0 0 1 .001 0 .132.132 0 0 1 .01.005.132.132 0 0 1 .002 0 .132.132 0 0 1 .01.007.132.132 0 0 1 .002.002.132.132 0 0 1 .008.005.132.132 0 0 1 .011.012.132.132 0 0 1 .009.008.132.132 0 0 1 0 .002.132.132 0 0 1 .019.035.132.132 0 0 1 .004.01.132.132 0 0 1 0 .005.132.132 0 0 1 .006.035l.121.738 1.048-1.19a.132.132 0 0 1 .01-.011.132.132 0 0 1 .014-.018.132.132 0 0 1 .045-.03.132.132 0 0 1 .026-.007.132.132 0 0 1 .01-.002z" color="#000" font-weight="400" font-family="sans-serif" overflow="visible"/></svg>