<svg xmlns="http://www.w3.org/2000/svg" width="24" height="24" viewBox="0 0 6.35 6.35"><g color="#000" font-weight="400" font-family="sans-serif" paint-order="stroke fill markers"><path style="line-height:normal;font-variant-ligatures:normal;font-variant-position:normal;font-variant-caps:normal;font-variant-numeric:normal;font-variant-alternates:normal;font-feature-settings:normal;text-indent:0;text-align:start;text-decoration-line:none;text-decoration-style:solid;text-decoration-color:#000;text-transform:none;text-orientation:mixed;white-space:normal;shape-padding:0;isolation:auto;mix-blend-mode:normal;solid-color:#000;solid-opacity:1" d="M3.176.86c-.682 0-1.24.557-1.24 1.24 0 .682.558 1.238 1.24 1.238.682 0 1.24-.556 1.24-1.239 0-.682-.558-1.24-1.24-1.24zM1.784 3.62a1.25 1.25 0 0 0-.7.222 1.482 1.482 0 0 0-.206.168 1.618 1.618 0 0 0-.313.416l-.004.007A2.262 2.262 0 0 0 .309 5.47c0 .011.01.02.02.02h.109v.001H6.02a.02.02 0 0 0 .021-.02 2.29 2.29 0 0 0-.099-.67 2.085 2.085 0 0 0-.06-.168v-.002a2.018 2.018 0 0 0-.06-.131l-.015-.035a1.899 1.899 0 0 0-.059-.103l-.026-.046-.002-.003a1.622 1.622 0 0 0-.247-.303l-.025-.023a1.478 1.478 0 0 0-.18-.145 1.249 1.249 0 0 0-.7-.221z" overflow="visible"/></g></svg>